<svg width="24" height="25" viewBox="0 0 24 25" fill="none" xmlns="http://www.w3.org/2000/svg">
<mask id="mask0_1481_693" style="mask-type:luminance" maskUnits="userSpaceOnUse" x="0" y="0" width="24" height="25">
<path d="M12 24.8616C18.6274 24.8616 24 19.489 24 12.8616C24 6.23416 18.6274 0.861572 12 0.861572C5.37258 0.861572 0 6.23416 0 12.8616C0 19.489 5.37258 24.8616 12 24.8616Z" fill="white"/>
</mask>
<g mask="url(#mask0_1481_693)">
<path d="M19.4843 22.0427C20.7663 20.3309 22.1607 18.3018 22.4131 15.508C22.5531 13.9611 22.2982 12.3993 21.8334 11.1523C21.3686 9.90529 20.7038 8.95069 19.9891 8.18101C18.1999 6.25931 16.0858 5.44215 13.9691 5.11229C10.9104 4.63499 7.69426 5.16477 4.84795 7.68622C4.04328 8.39842 3.2661 9.27806 2.65636 10.4826C2.04661 11.6871 1.61929 13.2489 1.61179 14.8307C1.5993 17.4546 2.67885 19.4938 3.69093 21.2481C2.70384 20.3235 1.76173 19.1889 1.06702 17.6296C0.37231 16.0702 -0.0575108 14.0336 0.074934 11.9644C0.20488 9.94028 0.857108 8.04857 1.70675 6.63916C2.5564 5.22974 3.59347 4.25515 4.64803 3.47547C9.2811 0.046902 14.4789 0.129368 19.012 2.96319C20.3615 3.80783 21.6909 4.92487 22.668 6.7741C23.7676 8.86073 24.3648 12.0969 23.6801 15.0132C23.0429 17.7245 21.8384 20.0361 20.384 21.3655C20.0916 21.6329 19.7917 21.8603 19.4843 22.0427Z" fill="#469B70"/>
<path d="M16.4032 23.6821C17.1903 22.9549 18.02 21.9628 18.2674 20.4384C18.4523 19.2989 18.2574 18.0744 17.8751 17.1798C17.4927 16.2826 16.9429 15.6729 16.3732 15.1956C14.8963 13.9561 13.2245 13.4938 11.5552 13.5338C10.0233 13.5713 8.45149 14.0386 7.05707 15.3555C6.12496 16.2377 5.20034 17.8195 5.26032 19.6662C5.3078 21.1481 5.96752 22.2252 6.59976 23.1023C5.85257 22.6125 5.11538 22.0177 4.52062 21.0831C3.92587 20.1485 3.48356 18.8316 3.44607 17.3647C3.40859 15.7853 3.8484 14.196 4.48814 13.039C5.12787 11.882 5.94753 11.1148 6.78468 10.5575C8.74636 9.25307 10.848 9.01567 12.8796 9.25307C14.7439 9.47048 16.6106 10.0927 18.2224 11.6521C18.8272 12.2368 19.4019 12.969 19.7943 13.9861C21.3761 18.0544 18.6872 22.9798 16.4032 23.6821Z" fill="#469B70"/>
<path d="M15.679 21.0965C15.7879 18.9518 14.1163 17.1238 11.9454 17.0136C9.7745 16.9034 7.92638 18.5527 7.8175 20.6974C7.70862 22.8421 9.38022 24.67 11.5511 24.7802C13.722 24.8904 15.5701 23.2412 15.679 21.0965Z" fill="#469B70"/>
</g>
</svg>
