<svg width="25" height="25" viewBox="0 0 25 25" fill="none" xmlns="http://www.w3.org/2000/svg">
<path d="M1.15282 7.64857L0.647108 8.15429L0.142822 7.64857L0.647108 7.14286L1.15282 7.64857ZM8.29568 24.0771C8.10624 24.0771 7.92456 24.0019 7.7906 23.8679C7.65665 23.734 7.58139 23.5523 7.58139 23.3629C7.58139 23.1734 7.65665 22.9917 7.7906 22.8578C7.92456 22.7238 8.10624 22.6486 8.29568 22.6486V24.0771ZM7.78996 15.2971L0.647108 8.15429L1.65854 7.14286L8.80139 14.2857L7.78996 15.2971ZM0.647108 7.14286L7.78996 0L8.80139 1.01143L1.65854 8.15429L0.647108 7.14286ZM1.15282 6.93429H16.1528V8.36286H1.15282V6.93429ZM16.1528 24.0771H8.29568V22.6486H16.1528V24.0771ZM24.7243 15.5057C24.7243 17.779 23.8212 19.9592 22.2137 21.5666C20.6063 23.1741 18.4261 24.0771 16.1528 24.0771V22.6486C18.0472 22.6486 19.864 21.896 21.2036 20.5565C22.5431 19.2169 23.2957 17.4001 23.2957 15.5057H24.7243ZM16.1528 6.93429C18.4261 6.93429 20.6063 7.83735 22.2137 9.4448C23.8212 11.0523 24.7243 13.2324 24.7243 15.5057H23.2957C23.2957 13.6113 22.5431 11.7945 21.2036 10.455C19.864 9.11541 18.0472 8.36286 16.1528 8.36286V6.93429Z" fill="#343D4C"/>
</svg>
