<svg width="775" height="310" viewBox="0 0 775 310" fill="none" xmlns="http://www.w3.org/2000/svg">
<g clip-path="url(#clip0_138_9)">
<g clip-path="url(#clip1_138_9)">
<rect width="775" height="62" fill="white" fill-opacity="0.01"/>
<mask id="path-3-inside-1_138_9" fill="white">
<path d="M0 0H175V62H0V0Z"/>
</mask>
<path d="M0 0H175V62H0V0Z" fill="white" fill-opacity="0.01"/>
<path d="M0 0V-1H-1V0H0ZM0 1H175V-1H0V1ZM1 62V0H-1V62H1Z" fill="#343D4C" mask="url(#path-3-inside-1_138_9)"/>
<path d="M32.352 29.648V27.344H24.408V29.648H32.352ZM32.352 33.296V30.968H24.408V33.296H32.352ZM32.352 36.968V34.616H24.408V36.968H32.352ZM22.728 25.976H26.664C26.856 25.232 27.048 24.368 27.192 23.6H21.552V22.064H35.016V23.6H29.208C28.968 24.416 28.68 25.256 28.44 25.976H34.08V38.36H22.728V25.976ZM21.72 33.68L22.032 35.264C19.056 36.344 15.912 37.472 13.56 38.288L12.84 36.608C13.848 36.296 15.096 35.888 16.464 35.456V25.352H13.344V23.696H21.456V25.352H18.264V34.856L21.72 33.68ZM25.296 38.744L26.856 39.728C25.32 40.928 22.824 42.152 20.736 42.848C20.496 42.488 19.944 41.936 19.608 41.576C21.672 40.952 24.12 39.776 25.296 38.744ZM29.256 39.8L30.576 38.84C32.184 39.632 34.296 40.904 35.4 41.792L33.984 42.872C32.976 41.984 30.888 40.664 29.256 39.8ZM42.096 39.32H54.648V35.384H42.096V39.32ZM54.648 29.744H42.096V33.68H54.648V29.744ZM54.648 24.152H42.096V28.04H54.648V24.152ZM40.344 22.424H56.496V42.704H54.648V41.072H42.096V42.704H40.344V22.424Z" fill="#141915"/>
<mask id="path-6-inside-2_138_9" fill="white">
<path d="M175 0H775V62H175V0Z"/>
</mask>
<path d="M175 0H775V62H175V0Z" fill="white" fill-opacity="0.01"/>
<path d="M175 0V-1H174V0H175ZM175 1H775V-1H175V1ZM176 62V0H174V62H176Z" fill="#343D4C" mask="url(#path-6-inside-2_138_9)"/>
<path d="M198.184 32.84L197.056 34.376C196.528 33.512 195.28 31.832 194.296 30.536V42.8H192.52V31.28C191.488 34.088 190.12 36.824 188.704 38.456C188.512 37.952 188.056 37.208 187.72 36.776C189.544 34.784 191.368 31.064 192.256 27.752H188.536V26.048H192.52V20.912H194.296V26.048H197.56V27.752H194.296V28.376C195.184 29.336 197.584 32.144 198.184 32.84ZM209.92 26.072V27.776H207.448V40.4C207.448 41.624 207.136 42.176 206.344 42.44C205.552 42.752 204.136 42.8 202.12 42.8C202.024 42.296 201.736 41.48 201.472 40.976C203.032 41.024 204.568 41 205.024 41C205.456 40.976 205.624 40.856 205.624 40.424V30.2C203.728 33.656 200.992 37.04 198.352 39.032C198.04 38.576 197.512 37.952 197.08 37.592C200.08 35.552 203.224 31.544 205 27.776H198.472V26.072H205.624V20.96H207.448V26.072H209.92ZM228.544 25.544L227.632 26.912C226.864 26 225.232 24.704 223.864 23.816L224.776 22.616C226.12 23.432 227.776 24.656 228.544 25.544ZM227.488 31.28L226.6 32.72C225.784 31.856 224.056 30.632 222.64 29.84L223.48 28.592C224.896 29.336 226.648 30.44 227.488 31.28ZM220.576 22.376L222.112 22.76C221.536 24.56 220.792 26.792 220.144 28.136L218.968 27.752C219.544 26.336 220.216 23.984 220.576 22.376ZM215.584 27.728L214.192 28.088C214.048 26.672 213.496 24.464 212.872 22.784L214.168 22.472C214.864 24.128 215.416 26.288 215.584 27.728ZM214.768 32L216.064 32.408C215.56 35.072 214.552 38.432 213.304 40.16C213.112 39.56 212.704 38.72 212.368 38.192C213.376 36.8 214.36 34.136 214.768 32ZM222.112 30.608H218.2V42.848H216.544V30.608H212.704V28.928H216.544V20.936H218.2V28.928H222.112V30.608ZM218.32 32.72L219.304 32.024C219.76 32.72 221.488 35.984 221.848 36.8L220.576 38.12C220.144 36.824 218.824 33.752 218.32 32.72ZM234.568 35.528L231.472 36.08V42.824H229.792V36.392L222.352 37.76L222.064 36.08L229.792 34.712V20.936H231.472V34.4L234.304 33.896L234.568 35.528ZM258.928 27.56L257.584 28.52C256.624 26.72 254.488 23.888 252.592 21.848L253.864 21.032C255.736 23.048 257.968 25.76 258.928 27.56ZM242.608 24.2L241.024 24.776C240.76 23.888 240.136 22.544 239.56 21.536L241.048 21.032C241.672 22.016 242.32 23.312 242.608 24.2ZM245.368 24.992V26.456H237.016V24.992H245.368ZM244.504 28.136V29.552H237.976V28.136H244.504ZM237.976 32.672V31.256H244.504V32.672H237.976ZM243.184 35.936H239.488V39.896H243.184V35.936ZM244.72 34.448V41.384H239.488V42.512H237.904V34.448H244.72ZM249.016 29V32.888H254.824V29H249.016ZM255.304 40.856H256.768C257.272 40.856 257.368 40.496 257.44 38.024C257.8 38.288 258.496 38.576 259 38.696C258.808 41.72 258.352 42.488 256.984 42.488H255.016C253.384 42.488 252.976 41.96 252.976 40.208V34.472H251.08C250.72 38.24 249.736 41.24 246.16 42.944C245.944 42.512 245.44 41.864 245.08 41.576C248.224 40.184 249.04 37.616 249.352 34.472H247.312V27.416C246.904 27.872 246.52 28.28 246.112 28.664C245.824 28.352 245.176 27.728 244.768 27.44C246.568 25.928 248.224 23.624 249.208 21.272L250.864 21.776C249.976 23.816 248.704 25.808 247.336 27.392H256.576V34.472H254.728V40.184C254.728 40.76 254.8 40.856 255.304 40.856ZM268.024 24.032H264.112V28.568H268.024V24.032ZM264.112 34.952H268.024V30.2H264.112V34.952ZM269.704 36.608H264.112V38.816H262.432V22.4H269.704V36.608ZM274.192 33.56H280.672V29.36H274.336V30.44C274.336 31.424 274.312 32.48 274.192 33.56ZM280.672 23.624H274.336V27.728H280.672V23.624ZM282.424 21.944V40.496C282.424 41.624 282.16 42.152 281.416 42.464C280.624 42.752 279.304 42.8 277.264 42.8C277.192 42.296 276.904 41.528 276.64 41.048C278.152 41.096 279.664 41.072 280.096 41.072C280.504 41.048 280.672 40.904 280.672 40.496V35.192H273.952C273.448 38.024 272.248 40.88 269.68 42.968C269.44 42.632 268.744 42.008 268.36 41.792C272.176 38.672 272.584 34.136 272.584 30.44V21.944H282.424Z" fill="#141915"/>
</g>
<g clip-path="url(#clip2_138_9)">
<rect width="775" height="62" transform="translate(0 62)" fill="white" fill-opacity="0.01"/>
<mask id="path-9-inside-3_138_9" fill="white">
<path d="M0 62H175V124H0V62Z"/>
</mask>
<path d="M0 62H175V124H0V62Z" fill="white" fill-opacity="0.01"/>
<path d="M0 62V61H-1V62H0ZM0 63H175V61H0V63ZM1 124V62H-1V124H1Z" fill="#343D4C" mask="url(#path-9-inside-3_138_9)"/>
<path d="M31.248 86.8L32.64 86.968C32.52 87.616 32.352 88.216 32.136 88.792C33.12 89.56 34.272 90.616 34.824 91.288L33.912 92.272C33.408 91.672 32.472 90.736 31.584 89.968C31.104 90.832 30.456 91.576 29.688 92.152C29.496 91.888 28.944 91.408 28.656 91.168C30.048 90.208 30.888 88.696 31.248 86.8ZM23.568 86.8L24.96 87.016C24.816 87.664 24.624 88.288 24.408 88.888C25.152 89.536 25.968 90.352 26.4 90.88L25.536 91.864C25.152 91.36 24.504 90.664 23.856 90.04C23.328 90.928 22.704 91.696 21.936 92.296C21.72 92.056 21.216 91.576 20.88 91.336C22.296 90.304 23.16 88.72 23.568 86.8ZM18 90.208V83.032H19.536V104.824H18V96.448H16.056V97.096C16.056 99.184 15.768 102.472 14.328 104.848C13.992 104.56 13.392 104.248 13.008 104.056C14.352 101.896 14.568 98.944 14.568 97.096V96.448H13.056V94.888H18V91.816H14.232V84.064H15.744V90.208H18ZM29.304 100.528V98.752H26.088V100.528H29.304ZM30.48 97.72V101.56H24.912V97.72H30.48ZM32.088 96.568H23.496V102.784H32.088V96.568ZM21.888 104.848V95.296H33.744V104.776H32.088V104.104H23.496V104.848H21.888ZM28.464 92.488H34.992V94H20.448V92.488H26.832V86.488H21.312V85H26.832V82.936H28.464V85H34.344V86.488H28.464V92.488ZM56.112 101.92V90.88H52.512V101.92H56.112ZM40.776 90.88V101.92H44.184V90.88H40.776ZM50.88 93.52V90.88H45.816V93.52H50.88ZM45.816 99.136V101.92H50.88V99.136H45.816ZM50.88 97.672V94.984H45.816V97.672H50.88ZM59.064 86.224H49.224C48.936 87.232 48.6 88.312 48.288 89.224H57.912V104.848H56.112V103.576H40.776V104.848H39.048V89.224H46.464C46.728 88.312 46.968 87.208 47.16 86.224H37.968V84.52H59.064V86.224Z" fill="#141915"/>
<mask id="path-12-inside-4_138_9" fill="white">
<path d="M175 62H775V124H175V62Z"/>
</mask>
<path d="M175 62H775V124H175V62Z" fill="white" fill-opacity="0.01"/>
<path d="M175 62V61H174V62H175ZM175 63H775V61H175V63ZM176 124V62H174V124H176Z" fill="#343D4C" mask="url(#path-12-inside-4_138_9)"/>
<path d="M206.224 83.104L207.928 83.848C205.888 86.368 202.672 88.768 199.648 90.256C199.384 89.848 198.832 89.296 198.376 88.936C201.208 87.64 204.472 85.36 206.224 83.104ZM207.088 89.44L208.816 90.184C206.68 93.016 203.248 95.536 199.864 97.12C199.576 96.688 199.072 96.112 198.592 95.752C201.832 94.408 205.264 92.008 207.088 89.44ZM198.064 94.696L196.936 96.184C196.408 95.368 195.232 93.856 194.272 92.704V104.824H192.544V93.208C191.512 96.04 190.144 98.776 188.728 100.432C188.536 99.928 188.08 99.208 187.768 98.776C189.568 96.784 191.392 93.064 192.28 89.752H188.344V88.048H192.544V82.912H194.272V88.048H198.064V89.752H194.272V90.688C195.088 91.456 197.488 94.024 198.064 94.696ZM208.048 96.112L209.8 96.832C207.376 100.408 203.224 103.264 198.568 104.92C198.328 104.488 197.824 103.864 197.392 103.504C201.856 102.064 205.912 99.376 208.048 96.112ZM233.824 90.568H225.16C227.32 94.624 231.064 98.704 234.664 100.696C234.232 101.056 233.608 101.728 233.296 102.232C230.032 100.168 226.72 96.424 224.392 92.44V104.848H222.544V92.464C220.264 96.544 216.976 100.24 213.592 102.304C213.256 101.824 212.656 101.152 212.248 100.792C215.92 98.8 219.592 94.72 221.704 90.568H213.16V88.816H222.544V82.936H224.392V88.816H233.824V90.568ZM242.92 86.008L241.864 87.376C240.976 86.632 239.344 85.384 238.096 84.496L239.152 83.296C240.376 84.088 242.056 85.264 242.92 86.008ZM241.72 91.984L240.808 93.496C239.92 92.824 238.192 91.792 236.896 91.072L237.784 89.704C239.032 90.376 240.832 91.36 241.72 91.984ZM238.888 104.44L237.448 103.432C238.6 101.56 240.232 98.416 241.408 95.68L242.704 96.712C241.6 99.208 240.136 102.232 238.888 104.44ZM246.64 99.664H255.232V97.792H246.712C246.712 98.368 246.688 99.016 246.64 99.664ZM255.232 94.672H246.712V96.544H255.232V94.672ZM257.032 93.328V102.88C257.032 103.816 256.816 104.248 256.144 104.512C255.496 104.776 254.44 104.776 252.784 104.776C252.688 104.32 252.448 103.672 252.232 103.24C253.36 103.264 254.488 103.264 254.8 103.264C255.136 103.24 255.232 103.144 255.232 102.856V100.96H246.448C246.232 102.424 245.752 103.864 244.864 105.016C244.6 104.632 243.904 103.96 243.52 103.744C244.84 101.944 244.96 99.568 244.96 97.696V93.328H257.032ZM251.824 90.52H258.928V91.888H242.656V90.52H250.072V88.744H244.024V87.424H250.072V85.816H243.424V84.472H250.072V82.912H251.824V84.472H258.472V85.816H251.824V87.424H257.728V88.744H251.824V90.52ZM269.08 88.96L270.232 89.416C269.08 95.656 266.272 100.096 262.888 102.472C262.624 102.088 261.904 101.392 261.472 101.128C264.52 99.136 266.944 95.536 268.096 90.808H262.24V89.032H268.72L269.08 88.96ZM279.976 87.4L281.584 88.552C280 90.376 277.912 92.536 276.232 93.952C278.272 96.904 280.864 99.4 283.744 100.744C283.336 101.104 282.736 101.824 282.424 102.352C278.704 100.384 275.608 96.592 273.424 92.272V102.4C273.424 103.576 273.136 104.152 272.44 104.464C271.72 104.8 270.52 104.848 268.696 104.848C268.624 104.32 268.312 103.432 268.024 102.904C269.392 102.952 270.64 102.952 271 102.952C271.408 102.928 271.552 102.808 271.552 102.4V82.984H273.424V88.744C273.952 90.064 274.6 91.384 275.344 92.632C276.952 91.144 278.824 89.032 279.976 87.4ZM302.92 88.096V86.392H300.904V84.88H302.92V82.96H304.528V84.88H307.768V86.392H304.528V88.096H302.92ZM296.512 88.096V86.416H293.56V84.904H296.512V82.96H298.144V84.904H300.064V86.416H298.144V88.096H296.512ZM293.8 94.768L292.696 96.064C292.384 95.272 291.712 93.808 291.088 92.584V104.824H289.432V93.328C288.688 95.848 287.704 98.32 286.72 99.856C286.528 99.328 286.12 98.56 285.808 98.128C287.2 96.16 288.616 92.344 289.312 89.2H286.384V87.52H289.432V82.912H291.088V87.52H293.776V89.2H291.088V90.16C291.712 91.12 293.392 94.048 293.8 94.768ZM296.32 92.992V94.696H304.6V92.992H296.32ZM296.32 90.016V91.72H304.6V90.016H296.32ZM307.48 99.544H300.496C299.56 102.112 297.64 103.816 293.44 104.848C293.272 104.44 292.864 103.768 292.504 103.432C296.008 102.64 297.736 101.368 298.624 99.544H293.08V98.032H299.152C299.296 97.432 299.416 96.736 299.488 96.04H294.64V88.672H306.328V96.04H301.24C301.168 96.736 301.048 97.408 300.928 98.032H307.48V99.544ZM300.472 100.816L301.528 99.688C303.616 100.792 306.448 102.448 307.912 103.432L306.808 104.752C305.392 103.696 302.584 101.992 300.472 100.816ZM319.504 90.664C321.208 92.056 323.392 94.216 324.88 95.992L323.248 97.36C321.688 95.464 319.648 93.424 317.944 92.032L319.504 90.664ZM335.128 85.96V84.232H347.368V85.96H341.944C341.608 87.064 341.248 88.216 340.912 89.176H346.72V103.024C346.72 103.768 346.6 104.2 346.12 104.44C345.664 104.68 344.992 104.728 344.008 104.728C343.96 104.32 343.744 103.696 343.528 103.288C344.176 103.312 344.776 103.312 344.944 103.312C345.16 103.288 345.232 103.24 345.232 103.024V90.76H343.528V103.264H342.256V90.76H340.504V103.264H339.256V90.76H337.312V104.776H335.824V89.176H339.28C339.592 88.216 339.88 87.04 340.144 85.96H335.128ZM356.896 88.36V90.04H354.832V102.664C354.832 103.72 354.568 104.2 353.944 104.488C353.272 104.776 352.264 104.848 350.536 104.824C350.464 104.368 350.176 103.624 349.912 103.168C351.184 103.192 352.288 103.192 352.6 103.168C352.984 103.168 353.104 103.048 353.104 102.664V90.04H347.56V88.36H353.104V83.056H354.832V88.36H356.896ZM351.784 97.624L350.2 98.2C349.912 96.76 348.952 94.552 347.944 92.872L349.384 92.344C350.464 94 351.448 96.184 351.784 97.624ZM381.184 88.456V89.992H368.056V88.456H376.672C376.864 87.52 377.008 86.488 377.152 85.6H369.4V84.088H377.488L377.776 83.992L379 84.136C378.832 85.528 378.592 87.088 378.376 88.456H381.184ZM363.952 83.056L365.584 83.512C365.056 85.288 364.384 87.064 363.616 88.768V104.872H361.912V92.056C361.36 93.016 360.784 93.88 360.184 94.624C360.04 94.216 359.56 93.232 359.224 92.824C361.192 90.4 362.896 86.752 363.952 83.056ZM365.536 100.216V88.144H367.12V100.216H365.536ZM381.208 98.608H375.232C374.728 100.816 373.12 103.192 368.464 104.896C368.224 104.512 367.696 103.888 367.312 103.576C371.464 102.232 372.952 100.36 373.432 98.608H368.104V97.048H373.696C373.696 96.88 373.696 96.712 373.696 96.544V93.928H371.08C370.552 94.936 369.928 95.824 369.304 96.544C368.992 96.304 368.32 95.848 367.912 95.608C369.208 94.288 370.264 92.224 370.888 90.136L372.496 90.52C372.304 91.168 372.064 91.816 371.8 92.416H380.416V93.928H375.448V96.568C375.448 96.736 375.448 96.88 375.448 97.048H381.208V98.608ZM375.304 99.928L376.528 99.04C378.184 100.456 380.392 102.472 381.544 103.672L380.224 104.728C379.168 103.504 376.984 101.44 375.304 99.928ZM392.752 87.856L391.912 89.224C391.024 88.096 389.488 86.752 387.952 85.648C387.184 86.8 386.344 87.904 385.456 88.816H391.216V90.328H388.84V92.92H392.008V94.456H388.84V101.608C389.944 101.392 391.144 101.152 392.272 100.912L392.392 102.4C389.584 103.048 386.656 103.648 384.4 104.128L384.016 102.496C384.952 102.328 386.08 102.112 387.328 101.896V94.456H384.136V92.92H387.328V90.328H385.24V89.032C384.904 89.392 384.568 89.68 384.232 89.968C384.112 89.584 383.704 88.696 383.464 88.312C385.144 87.04 386.848 85 387.88 82.84L389.2 83.392C389.056 83.728 388.888 84.04 388.696 84.376C390.28 85.432 391.864 86.752 392.752 87.856ZM390.64 100.168L389.512 99.856C389.824 98.68 390.232 96.784 390.4 95.488L391.744 95.848C391.384 97.312 391 99.064 390.64 100.168ZM384.496 96.04L385.672 95.776C386.152 97.216 386.536 99.064 386.608 100.264L385.36 100.6C385.312 99.352 384.928 97.48 384.496 96.04ZM395.92 100.384V93.472H397V98.992H398.512V91.912H395.344V90.52H399.76C400.168 89.224 400.624 87.352 400.864 86.032L402.208 86.416C401.824 87.736 401.392 89.344 400.984 90.52H402.832V91.912H399.616V98.992H401.176V93.472H402.232V100.384H395.92ZM395.896 86.44L397 86.128C397.6 87.304 398.104 88.816 398.248 89.752L397.096 90.16C396.952 89.2 396.448 87.616 395.896 86.44ZM405.16 83.944V102.76C405.16 103.768 404.92 104.272 404.296 104.536C403.624 104.824 402.52 104.848 400.696 104.848C400.624 104.416 400.408 103.696 400.168 103.24C401.536 103.288 402.76 103.288 403.12 103.264C403.504 103.24 403.624 103.144 403.624 102.736V85.528H394.456V104.848H392.92V83.944H405.16ZM417.208 95.92L416.104 97.336C415.696 96.544 414.736 95.056 413.92 93.88V104.8H412.216V93.472C411.352 96.16 410.2 98.776 409 100.36C408.808 99.88 408.376 99.16 408.088 98.752C409.648 96.736 411.232 92.992 412 89.704H408.64V88.048H412.216V82.912H413.92V88.048H417.016V89.704H413.92V91.792C414.664 92.632 416.728 95.272 417.208 95.92ZM427.672 92.152H421.672C422.368 94.552 423.352 96.76 424.672 98.608C425.992 96.832 427.024 94.648 427.672 92.152ZM428.584 90.472L429.664 90.808C428.944 94.6 427.576 97.648 425.776 100C427.096 101.464 428.68 102.64 430.528 103.384C430.144 103.744 429.592 104.416 429.328 104.872C427.528 104.032 425.968 102.808 424.672 101.296C423.256 102.808 421.624 103.96 419.896 104.8C419.68 104.392 419.176 103.72 418.792 103.384C420.544 102.664 422.176 101.488 423.592 99.952C422.056 97.768 420.904 95.128 420.088 92.152H419.968C419.872 96.088 419.32 101.248 416.656 104.752C416.368 104.44 415.624 103.888 415.24 103.696C417.976 100.024 418.24 94.864 418.24 91.072V84.376H429.928V86.032H419.968V90.52H428.272L428.584 90.472ZM454.768 89.56L453.424 90.52C452.464 88.72 450.328 85.888 448.432 83.848L449.704 83.032C451.576 85.048 453.808 87.76 454.768 89.56ZM438.448 86.2L436.864 86.776C436.6 85.888 435.976 84.544 435.4 83.536L436.888 83.032C437.512 84.016 438.16 85.312 438.448 86.2ZM441.208 86.992V88.456H432.856V86.992H441.208ZM440.344 90.136V91.552H433.816V90.136H440.344ZM433.816 94.672V93.256H440.344V94.672H433.816ZM439.024 97.936H435.328V101.896H439.024V97.936ZM440.56 96.448V103.384H435.328V104.512H433.744V96.448H440.56ZM444.856 91V94.888H450.664V91H444.856ZM451.144 102.856H452.608C453.112 102.856 453.208 102.496 453.28 100.024C453.64 100.288 454.336 100.576 454.84 100.696C454.648 103.72 454.192 104.488 452.824 104.488H450.856C449.224 104.488 448.816 103.96 448.816 102.208V96.472H446.92C446.56 100.24 445.576 103.24 442 104.944C441.784 104.512 441.28 103.864 440.92 103.576C444.064 102.184 444.88 99.616 445.192 96.472H443.152V89.416C442.744 89.872 442.36 90.28 441.952 90.664C441.664 90.352 441.016 89.728 440.608 89.44C442.408 87.928 444.064 85.624 445.048 83.272L446.704 83.776C445.816 85.816 444.544 87.808 443.176 89.392H452.416V96.472H450.568V102.184C450.568 102.76 450.64 102.856 451.144 102.856ZM463.864 86.032H459.952V90.568H463.864V86.032ZM459.952 96.952H463.864V92.2H459.952V96.952ZM465.544 98.608H459.952V100.816H458.272V84.4H465.544V98.608ZM470.032 95.56H476.512V91.36H470.176V92.44C470.176 93.424 470.152 94.48 470.032 95.56ZM476.512 85.624H470.176V89.728H476.512V85.624ZM478.264 83.944V102.496C478.264 103.624 478 104.152 477.256 104.464C476.464 104.752 475.144 104.8 473.104 104.8C473.032 104.296 472.744 103.528 472.48 103.048C473.992 103.096 475.504 103.072 475.936 103.072C476.344 103.048 476.512 102.904 476.512 102.496V97.192H469.792C469.288 100.024 468.088 102.88 465.52 104.968C465.28 104.632 464.584 104.008 464.2 103.792C468.016 100.672 468.424 96.136 468.424 92.44V83.944H478.264ZM484.984 91.12V92.56C484.984 93.208 484.984 93.832 484.96 94.504H489.064V104.824H487.384V96.064H484.888C484.744 99.064 484.312 102.28 483.28 104.848C482.896 104.656 482.176 104.392 481.672 104.248C483.136 100.84 483.352 96.04 483.352 92.56V83.44H484.984V89.56H487.528V82.96H489.04V91.12H484.984ZM492.448 93.448H495.016C495.448 92.512 495.664 91.6 495.784 90.832H492.448V93.448ZM492.448 86.872V89.44H495.88V86.872H492.448ZM500.8 89.44V86.872H497.488V89.44H500.8ZM500.8 93.448V90.832H497.392C497.272 91.576 497.056 92.464 496.672 93.448H500.8ZM503.68 98.344V99.952H499.456V104.824H497.8V99.952H489.808V98.344H492.376C492.088 98.056 491.68 97.768 491.44 97.6C492.664 96.784 493.552 95.848 494.2 94.912H490.768V85.384H494.176C494.536 84.616 494.968 83.632 495.16 82.936L497.152 83.248C496.816 83.992 496.432 84.76 496.096 85.384H502.552V94.912H496C495.352 96.112 494.416 97.312 493.096 98.344H497.8V95.488H499.456V98.344H503.68Z" fill="#141915"/>
</g>
<g clip-path="url(#clip3_138_9)">
<rect width="775" height="62" transform="translate(0 124)" fill="white" fill-opacity="0.01"/>
<mask id="path-15-inside-5_138_9" fill="white">
<path d="M0 124H175V186H0V124Z"/>
</mask>
<path d="M0 124H175V186H0V124Z" fill="white" fill-opacity="0.01"/>
<path d="M0 124V123H-1V124H0ZM0 125H175V123H0V125ZM1 186V124H-1V186H1Z" fill="#343D4C" mask="url(#path-15-inside-5_138_9)"/>
<path d="M34.68 146.952L33.48 147.936C32.904 147.264 31.632 146.328 30.552 145.704L31.68 144.84C32.76 145.392 34.056 146.304 34.68 146.952ZM32.496 153.384H29.328V155.904H32.496V153.384ZM29.328 160.032H32.496V157.416H29.328V160.032ZM24.696 160.032H27.696V157.416H24.696V160.032ZM24.696 153.384V155.904H27.696V153.384H24.696ZM34.92 149.712H29.376V151.824H34.224V164.88C34.224 165.696 34.08 166.152 33.528 166.44C32.976 166.704 32.136 166.752 30.936 166.752C30.888 166.296 30.672 165.624 30.432 165.168C31.248 165.216 31.968 165.192 32.184 165.192C32.424 165.192 32.496 165.12 32.496 164.856V161.568H29.328V166.656H27.696V161.568H24.696V166.776H23.016V151.824H27.624V149.712H22.368L21.672 150.984C20.736 150 19.248 148.752 17.832 147.696C17.064 148.896 16.2 150.024 15.288 150.984H21.048V152.544H18.552V155.136H21.792V156.696H18.552V163.32L21.768 162.648L21.864 164.088C18.984 164.784 15.888 165.504 13.656 166.008L13.272 164.4C14.304 164.232 15.648 163.944 17.112 163.632V156.696H13.536V155.136H17.112V152.544H14.808V151.488C14.424 151.848 14.04 152.208 13.656 152.544C13.56 152.136 13.152 151.176 12.936 150.744C14.76 149.328 16.656 147.144 17.76 144.792L19.104 145.392C18.96 145.728 18.792 146.064 18.6 146.4C19.92 147.312 21.24 148.368 22.176 149.232V148.176H27.624V144.936H29.376V148.176H34.92V149.712ZM20.232 162.432L19.2 162.072C19.584 160.896 20.064 158.976 20.28 157.68L21.576 158.112C21.168 159.576 20.688 161.328 20.232 162.432ZM13.992 158.28L15.144 157.968C15.552 159.36 15.96 161.184 16.08 162.36L14.856 162.72C14.784 161.52 14.376 159.696 13.992 158.28ZM56.112 163.92V152.88H52.512V163.92H56.112ZM40.776 152.88V163.92H44.184V152.88H40.776ZM50.88 155.52V152.88H45.816V155.52H50.88ZM45.816 161.136V163.92H50.88V161.136H45.816ZM50.88 159.672V156.984H45.816V159.672H50.88ZM59.064 148.224H49.224C48.936 149.232 48.6 150.312 48.288 151.224H57.912V166.848H56.112V165.576H40.776V166.848H39.048V151.224H46.464C46.728 150.312 46.968 149.208 47.16 148.224H37.968V146.52H59.064V148.224Z" fill="#141915"/>
<mask id="path-18-inside-6_138_9" fill="white">
<path d="M175 124H775V186H175V124Z"/>
</mask>
<path d="M175 124H775V186H175V124Z" fill="white" fill-opacity="0.01"/>
<path d="M175 124V123H174V124H175ZM175 125H775V123H175V125ZM176 186V124H174V186H176Z" fill="#343D4C" mask="url(#path-18-inside-6_138_9)"/>
<path d="M206.248 149.592V147.408H197.2V149.592H206.248ZM206.248 153.168V150.96H197.2V153.168H206.248ZM208.096 145.992V154.608H195.424V145.992H208.096ZM193.384 154.176L192.424 155.64C191.44 154.968 189.52 153.816 188.08 153.048L189.016 151.752C190.408 152.448 192.376 153.504 193.384 154.176ZM190.312 166.512L188.896 165.312C190.144 163.488 191.968 160.344 193.336 157.632L194.584 158.808C193.36 161.328 191.704 164.304 190.312 166.512ZM189.352 146.496L190.288 145.224C191.728 145.92 193.72 147.024 194.776 147.696L193.768 149.16C192.784 148.44 190.816 147.288 189.352 146.496ZM197.344 164.568L201.568 163.608C201.616 164.064 201.76 164.712 201.832 165.072C196.672 166.344 195.904 166.632 195.424 166.92C195.352 166.44 195.088 165.648 194.848 165.216C195.208 165.12 195.592 164.928 195.592 164.136V155.352H197.344V158.4H201.664V159.96H197.344V164.568ZM205.096 165.168H207.712C208.36 165.168 208.504 164.76 208.576 162.504C208.936 162.768 209.656 163.056 210.136 163.176C209.944 165.936 209.464 166.704 207.88 166.704H204.88C202.96 166.704 202.48 166.176 202.48 164.352V155.304H204.208V158.4H209.392V159.936H204.208V164.328C204.208 165.048 204.328 165.168 205.096 165.168ZM222.856 152.352H219.808C218.104 152.352 217.672 151.68 217.672 149.952V144.936H219.28V147.168H224.272V148.536H219.28V149.976C219.28 150.672 219.376 150.912 219.88 150.912H222.808C223.24 150.912 223.936 150.864 224.32 150.792C224.368 151.224 224.416 151.848 224.464 152.208C224.152 152.304 223.48 152.352 222.856 152.352ZM216.832 151.344L215.344 152.16C214.816 150.768 213.664 148.392 212.728 146.616L214.12 145.968C215.056 147.696 216.256 149.976 216.832 151.344ZM215.416 157.128L216.76 157.92C215.944 160.488 214.864 163.44 213.976 165.624L212.44 164.832C213.352 162.984 214.552 159.84 215.416 157.128ZM224.992 160.392H221.824C221.8 160.632 221.752 160.848 221.704 161.064C222.736 161.928 223.96 163.056 224.56 163.824L223.48 164.904C222.976 164.28 222.112 163.344 221.224 162.552C220.648 164.088 219.568 165.624 217.648 166.896C217.408 166.56 216.904 166.056 216.52 165.792C218.968 164.256 219.904 162.216 220.216 160.392H217.168V158.928H220.384C220.408 158.616 220.408 158.328 220.408 158.04V156H219.184C218.848 156.96 218.44 157.848 218.056 158.544C217.768 158.352 217.144 157.968 216.784 157.776C217.624 156.432 218.248 154.416 218.608 152.496L220.048 152.856C219.952 153.384 219.808 153.96 219.64 154.512H224.728V156H221.992V158.064C221.992 158.352 221.992 158.616 221.968 158.928H224.992V160.392ZM232.984 145.536L234.112 146.304C233.2 147.744 231.856 149.328 230.584 150.504C231.208 150.936 231.784 151.368 232.192 151.752L231.136 152.928C230.08 151.968 227.968 150.504 226.264 149.544L227.272 148.488C227.92 148.824 228.616 149.232 229.312 149.688C230.08 148.944 230.872 148.008 231.496 147.144H225.448V145.632H232.648L232.984 145.536ZM232.36 165.024H234.736C234.52 165.408 234.28 166.128 234.232 166.56H232.264C229.912 166.56 227.968 165.864 226.696 162.648C226.336 164.352 225.688 165.768 224.704 166.824C224.488 166.488 224.032 165.984 223.672 165.768C225.496 163.848 225.856 160.416 225.976 156.432H227.344C227.32 157.752 227.248 159 227.104 160.176C227.536 161.952 228.16 163.08 228.88 163.8V154.488H225.112V152.928H233.152L233.416 152.88L234.424 153.12C234.136 154.44 233.776 155.976 233.44 156.96L232.216 156.624C232.336 156.072 232.528 155.28 232.696 154.488H230.464V158.544H234.088V160.032H230.464V164.76C231.064 164.952 231.712 165.024 232.36 165.024ZM248.848 164.04H258.664V165.792H237.304V164.04H246.976V154.368H238.816V152.616H246.976V145.008H248.848V152.616H257.128V154.368H248.848V164.04ZM270.544 152.664C272.248 154.056 274.432 156.216 275.92 157.992L274.288 159.36C272.728 157.464 270.688 155.424 268.984 154.032L270.544 152.664ZM295.792 158.568L294.256 159.024C294.184 158.688 294.088 158.28 293.968 157.824C287.992 158.784 287.176 158.928 286.696 159.216C286.6 158.832 286.312 157.968 286.096 157.488C286.648 157.392 287.224 156.792 288.04 155.928C288.472 155.52 289.336 154.512 290.368 153.24C287.488 153.552 286.912 153.672 286.576 153.84C286.48 153.456 286.192 152.616 286 152.16C286.432 152.064 286.888 151.56 287.488 150.888C288.064 150.168 290.032 147.504 291.256 144.888L292.96 145.632C291.688 147.888 290.152 150.144 288.616 151.92L291.52 151.68C292.216 150.696 292.912 149.616 293.512 148.56L295.12 149.544C293.344 152.28 291.28 154.896 289.216 157.032L293.512 156.432C293.248 155.64 292.984 154.848 292.696 154.152L294.184 153.768C294.856 155.328 295.552 157.344 295.792 158.568ZM287.536 160.224L289.168 160.56C288.76 162.576 288.112 164.832 287.536 166.32C287.176 166.128 286.408 165.888 285.976 165.768C286.648 164.304 287.176 162.144 287.536 160.224ZM290.296 160.44L291.76 160.08C292.096 161.664 292.432 163.68 292.528 165.048L290.992 165.456C290.92 164.088 290.584 162.024 290.296 160.44ZM292.96 159.888L294.352 159.408C294.832 160.56 295.36 162.048 295.6 163.008L294.16 163.536C293.944 162.552 293.416 161.016 292.96 159.888ZM302.584 163.704H307.864V165.432H295V163.704H300.76V148.512H295.96V146.76H307.504V148.512H302.584V163.704ZM316.72 162.096V155.088H313.816V162.096H316.72ZM310.576 148.104V146.472H319.048V148.104H315.04C314.752 150 314.416 151.824 313.96 153.552H318.304V163.68H313.816V165.696H312.28V158.304C311.968 158.952 311.632 159.576 311.248 160.128C311.056 159.72 310.504 158.928 310.168 158.544C311.848 156.024 312.784 152.184 313.336 148.104H310.576ZM320.92 162.6L322.096 161.808C323.128 162.6 324.208 163.704 324.712 164.448L323.44 165.384C322.96 164.616 321.88 163.416 320.92 162.6ZM326.512 155.952V157.512L329.2 157.464C328.792 157.08 328.36 156.72 327.952 156.408L328.768 155.952H326.512ZM321.736 154.824H324.856V153.288H321.736V154.824ZM321.736 150.72V152.232H324.856V150.72H321.736ZM329.68 150.72H326.512V152.232H329.68V150.72ZM329.68 154.824V153.288H326.512V154.824H329.68ZM328.84 158.76V160.32H332.392V161.712H328.84V165.048C328.84 165.888 328.696 166.32 328.048 166.56C327.424 166.824 326.488 166.824 324.976 166.824C324.904 166.392 324.664 165.768 324.448 165.36C325.552 165.384 326.512 165.384 326.776 165.36C327.088 165.36 327.16 165.288 327.16 165V161.712H319.096V160.32H327.16V158.832C324.256 158.928 321.496 159 319.36 159.048L319.24 157.584C320.752 157.584 322.72 157.56 324.856 157.536V155.952H320.176V149.616H324.856V148.344H319.672V146.904H324.856V145.176H326.512V146.904H332.08V148.344H326.512V149.616H331.312V155.952H329.44C330.592 156.84 331.888 158.016 332.536 158.856L331.288 159.648C331.096 159.36 330.808 159.048 330.496 158.712L328.84 158.76ZM343.984 152.664C345.688 154.056 347.872 156.216 349.36 157.992L347.728 159.36C346.168 157.464 344.128 155.424 342.424 154.032L343.984 152.664ZM380.8 147.648V149.28H368.344V147.648H373.984C373.768 146.928 373.408 145.992 373.072 145.248L374.632 144.864C375.112 145.752 375.616 146.904 375.784 147.648H380.8ZM365.512 162.216V155.136H362.728V162.216H365.512ZM359.584 147.84V146.184H367.6V147.84H364.264C363.904 149.832 363.4 151.776 362.776 153.552H367.048V163.824H362.728V165.744H361.216V157.056C360.832 157.728 360.424 158.376 359.968 158.952C359.848 158.544 359.44 157.536 359.176 157.08C360.856 154.8 361.96 151.464 362.608 147.84H359.584ZM374.128 155.136L373.048 156.168C372.64 155.64 371.92 154.824 371.2 154.152C370.6 155.592 369.832 156.864 368.992 157.848C368.728 157.608 368.056 157.152 367.672 156.936C369.256 155.256 370.336 152.688 370.912 149.856L372.448 150.168C372.256 151.032 372.04 151.896 371.752 152.736C372.592 153.456 373.624 154.464 374.128 155.136ZM381.28 159.192V160.848H375.448V166.824H373.72V160.848H368.032V159.192H373.72V157.296H375.184C374.848 157.032 374.224 156.648 373.84 156.48C375.28 154.872 376.312 152.448 376.912 149.904L378.448 150.216C378.256 151.08 377.992 151.944 377.68 152.808C378.808 153.792 380.104 155.088 380.752 155.952L379.672 157.128C379.144 156.36 378.088 155.232 377.08 154.272C376.552 155.448 375.952 156.48 375.28 157.296H375.448V159.192H381.28ZM401.92 156.456H390.52V163.44H401.92V156.456ZM405.232 148.512H393.352C392.608 150.624 391.648 152.76 390.472 154.752H403.768V166.824H401.92V165.168H390.52V166.848H388.744V157.344C387.592 158.88 386.248 160.248 384.76 161.4C384.496 160.992 383.896 160.368 383.512 160.032C387.256 157.272 389.92 152.76 391.336 148.512H384.496V146.76H405.232V148.512ZM415.672 156.672L413.056 157.536V164.76C413.056 165.72 412.84 166.224 412.24 166.512C411.664 166.776 410.752 166.848 409.264 166.824C409.192 166.416 408.976 165.672 408.736 165.192C409.768 165.216 410.704 165.216 410.992 165.192C411.28 165.192 411.4 165.12 411.4 164.76V158.064L408.544 159L408.088 157.272C409 157.032 410.152 156.672 411.4 156.288V151.368H408.4V149.736H411.4V144.936H413.056V149.736H415.624V151.368H413.056V155.784C413.848 155.544 414.64 155.28 415.432 155.016L415.672 156.672ZM419.896 148.992V144.912H421.48V154.968C421.48 159.744 420.952 163.944 416.608 166.848C416.344 166.512 415.744 165.936 415.36 165.648C417.592 164.184 418.744 162.384 419.344 160.32C418 160.848 416.656 161.304 415.48 161.736L414.784 160.176C416.104 159.84 417.856 159.288 419.68 158.688C419.824 157.704 419.872 156.672 419.896 155.592H416.128V153.984H419.896V150.624H415.96V148.992H419.896ZM430.264 159.168V160.8H425.68V166.8H423.976V144.912H425.68V148.992H429.856V150.624H425.68V153.984H429.616V155.592H425.68V159.168H430.264ZM440.44 150.96L441.592 151.416C440.44 157.656 437.632 162.096 434.248 164.472C433.984 164.088 433.264 163.392 432.832 163.128C435.88 161.136 438.304 157.536 439.456 152.808H433.6V151.032H440.08L440.44 150.96ZM451.336 149.4L452.944 150.552C451.36 152.376 449.272 154.536 447.592 155.952C449.632 158.904 452.224 161.4 455.104 162.744C454.696 163.104 454.096 163.824 453.784 164.352C450.064 162.384 446.968 158.592 444.784 154.272V164.4C444.784 165.576 444.496 166.152 443.8 166.464C443.08 166.8 441.88 166.848 440.056 166.848C439.984 166.32 439.672 165.432 439.384 164.904C440.752 164.952 442 164.952 442.36 164.952C442.768 164.928 442.912 164.808 442.912 164.4V144.984H444.784V150.744C445.312 152.064 445.96 153.384 446.704 154.632C448.312 153.144 450.184 151.032 451.336 149.4ZM466.888 151.056V152.088H475.168V151.056H466.888ZM466.888 149.16V150.168H475.168V149.16H466.888ZM466.888 147.264V148.272H475.168V147.264H466.888ZM465.088 155.064V156.408H463.528V154.032H470.176C470.056 153.696 469.888 153.312 469.744 153H465.208V146.352H469.432C469.696 145.848 469.936 145.272 470.104 144.864L471.952 145.128C471.664 145.584 471.376 145.968 471.112 146.352H476.92V153H471.544C471.736 153.336 471.904 153.72 472.048 154.032H478.6V156.264H476.968V155.064H474.136V156.192C474.136 156.624 474.184 156.768 474.64 156.768H476.68C477.064 156.768 477.832 156.744 478.144 156.672C478.192 157.032 478.192 157.248 478.264 157.632C477.952 157.728 477.328 157.728 476.752 157.728H474.04C472.816 157.728 472.624 157.2 472.624 156.168V155.064H470.128C469.384 156.792 467.728 157.584 464.464 158.112C464.32 157.8 464.008 157.344 463.744 157.152C466.456 156.792 467.848 156.192 468.496 155.064H465.088ZM478.384 159.6H469.792C469.72 159.912 469.648 160.176 469.552 160.44H476.32C476.32 160.44 476.296 160.848 476.248 161.04C475.936 162.672 475.6 163.464 475.096 163.824C474.736 164.112 474.328 164.208 473.776 164.208C473.272 164.232 472.288 164.232 471.256 164.136C471.232 163.824 471.088 163.368 470.896 163.032C471.88 163.152 472.816 163.152 473.176 163.152C473.56 163.152 473.752 163.128 473.896 162.984C474.16 162.792 474.376 162.336 474.568 161.52H469.048C468.232 162.84 466.864 163.8 464.584 164.448C464.416 164.064 464.032 163.512 463.696 163.248C466.6 162.552 467.752 161.328 468.232 159.6H463.936V158.472H470.32C470.128 158.04 469.912 157.56 469.696 157.152L471.16 156.84C471.448 157.32 471.76 157.968 472 158.472H478.384V159.6ZM462.04 148.92L460.552 149.472C460.144 148.44 459.376 146.76 458.824 145.512L460.288 145.08C460.864 146.328 461.68 147.912 462.04 148.92ZM462.232 156.072L463.024 156.384C462.592 158.496 461.896 160.824 461.08 162.6C461.608 162.84 462.136 163.344 463.096 163.92C464.8 164.952 466.96 165.096 469.816 165.096C472.936 165.096 476.824 164.88 479.488 164.64C479.272 165.072 479.008 165.888 478.984 166.368C477.184 166.488 472.6 166.632 469.768 166.632C466.624 166.632 464.512 166.368 462.76 165.312C461.752 164.736 460.888 163.92 460.36 163.92C459.832 163.92 459.04 165.408 458.296 166.92L457.144 165.432C457.936 164.304 458.704 163.344 459.424 162.816C460.12 161.424 460.72 159.48 461.128 157.704H458.152C458.848 156.264 459.736 154.2 460.456 152.304H457.48V150.72H462.808C462.136 152.448 461.296 154.512 460.576 156.144H461.944L462.232 156.072ZM488.104 147.72L487.048 149.136C486.232 148.296 484.456 147.144 483.016 146.448L484.024 145.152C485.464 145.8 487.264 146.856 488.104 147.72ZM486.904 153.864L485.896 155.328C485.032 154.536 483.256 153.48 481.792 152.808L482.776 151.488C484.216 152.088 486.04 153.072 486.904 153.864ZM486.328 157.68L487.72 158.736C486.64 161.28 485.2 164.28 483.976 166.536L482.416 165.432C483.544 163.56 485.152 160.416 486.328 157.68ZM496.432 161.544H500.152V159.768H496.432V161.544ZM491.32 159.768V161.544H494.752V159.768H491.32ZM494.752 156.768H491.32V158.472H494.752V156.768ZM500.152 156.768H496.432V158.472H500.152V156.768ZM493.648 151.032V152.64H497.656V151.032H493.648ZM493.648 148.152V149.712H497.656V148.152H493.648ZM503.776 161.544V162.984H501.856V165C501.856 165.864 501.64 166.296 500.992 166.56C500.32 166.8 499.192 166.8 497.44 166.776C497.32 166.368 497.056 165.768 496.84 165.384C498.112 165.408 499.36 165.408 499.696 165.384C500.032 165.384 500.152 165.312 500.152 164.976V162.984H491.32V166.752H489.664V162.984H487.456V161.544H489.664V155.448H494.752V154.104H487.72V152.64H491.944V151.032H489.232V149.712H491.944V148.152H488.608V146.808H491.944V144.912H493.648V146.808H497.656V144.912H499.36V146.808H502.912V148.152H499.36V149.712H502.456V151.032H499.36V152.64H503.608V154.104H496.432V155.448H501.856V161.544H503.776Z" fill="#141915"/>
</g>
<g clip-path="url(#clip4_138_9)">
<rect width="775" height="62" transform="translate(0 186)" fill="white" fill-opacity="0.01"/>
<mask id="path-21-inside-7_138_9" fill="white">
<path d="M0 186H175V248H0V186Z"/>
</mask>
<path d="M0 186H175V248H0V186Z" fill="white" fill-opacity="0.01"/>
<path d="M0 186V185H-1V186H0ZM0 187H175V185H0V187ZM1 248V186H-1V248H1Z" fill="#343D4C" mask="url(#path-21-inside-7_138_9)"/>
<path d="M20.64 212.96L21.792 213.416C20.64 219.656 17.832 224.096 14.448 226.472C14.184 226.088 13.464 225.392 13.032 225.128C16.08 223.136 18.504 219.536 19.656 214.808H13.8V213.032H20.28L20.64 212.96ZM31.536 211.4L33.144 212.552C31.56 214.376 29.472 216.536 27.792 217.952C29.832 220.904 32.424 223.4 35.304 224.744C34.896 225.104 34.296 225.824 33.984 226.352C30.264 224.384 27.168 220.592 24.984 216.272V226.4C24.984 227.576 24.696 228.152 24 228.464C23.28 228.8 22.08 228.848 20.256 228.848C20.184 228.32 19.872 227.432 19.584 226.904C20.952 226.952 22.2 226.952 22.56 226.952C22.968 226.928 23.112 226.808 23.112 226.4V206.984H24.984V212.744C25.512 214.064 26.16 215.384 26.904 216.632C28.512 215.144 30.384 213.032 31.536 211.4ZM43.488 224.24L45.12 224.864C43.488 226.232 40.968 227.6 38.904 228.44C38.64 228.104 37.992 227.456 37.632 227.168C39.696 226.472 42.072 225.368 43.488 224.24ZM42.888 220.016V222.272H54.096V220.016H42.888ZM55.872 223.592H49.368V227.12C49.368 228.008 49.152 228.392 48.456 228.608C47.784 228.848 46.68 228.848 44.976 228.848C44.904 228.392 44.664 227.84 44.472 227.408C45.696 227.456 46.848 227.456 47.184 227.456C47.52 227.432 47.592 227.336 47.592 227.072V223.592H41.16V218.696H55.872V223.592ZM51.408 225.344L52.536 224.312C54.696 225.08 57.456 226.376 58.896 227.336L57.696 228.512C56.352 227.552 53.592 226.184 51.408 225.344ZM42.312 211.688V213.224H54.576V211.688H42.312ZM42.312 209.024V210.512H54.576V209.024H42.312ZM49.512 215.984H58.968V217.448H37.896V215.984H47.616C47.4 215.6 47.136 215.216 46.896 214.904L48.24 214.448H40.608V207.8H56.328V214.448H48.528C48.888 214.904 49.248 215.48 49.512 215.984Z" fill="#141915"/>
<mask id="path-24-inside-8_138_9" fill="white">
<path d="M175 186H775V248H175V186Z"/>
</mask>
<path d="M175 186H775V248H175V186Z" fill="white" fill-opacity="0.01"/>
<path d="M175 186V185H174V186H175ZM175 187H775V185H175V187ZM176 248V186H174V248H176Z" fill="#343D4C" mask="url(#path-24-inside-8_138_9)"/>
<path d="M205.072 214.592H208.096C208.504 214.592 209.2 214.544 209.584 214.472C209.608 214.88 209.656 215.576 209.704 215.984C209.416 216.08 208.768 216.104 208.144 216.104H205.096C203.344 216.104 202.888 215.504 202.888 213.776V210.464H204.52V213.8C204.52 214.376 204.592 214.592 205.072 214.592ZM196.6 209.792V212.552H194.944V208.232H209.008V212.456H207.304V209.792H196.6ZM199.096 210.464H200.728C200.416 213.968 199.312 215.768 194.872 216.752C194.728 216.344 194.296 215.672 193.96 215.384C197.968 214.64 198.856 213.296 199.096 210.464ZM194.2 209.912L193.12 211.28C192.28 210.464 190.552 209.288 189.208 208.544L190.264 207.32C191.608 207.992 193.336 209.096 194.2 209.912ZM192.88 216.2L191.848 217.616C190.984 216.824 189.304 215.672 187.96 214.976L188.968 213.752C190.288 214.376 192.04 215.432 192.88 216.2ZM192.424 219.536L193.768 220.664C192.688 223.16 191.296 226.088 190.072 228.296L188.584 227.168C189.664 225.344 191.248 222.224 192.424 219.536ZM209.392 220.304H203.92C205.384 222.584 207.784 224.672 210.088 225.752C209.704 226.088 209.152 226.712 208.888 227.168C206.608 225.896 204.28 223.64 202.72 221.168V228.824H200.968V221.264C199.408 223.856 197.08 226.04 194.584 227.24C194.32 226.808 193.768 226.16 193.36 225.824C195.904 224.768 198.28 222.68 199.72 220.304H194.536V218.672H200.968V216.08H202.72V218.672H209.392V220.304ZM226.552 214.184L225.4 213.704C226.024 212.672 226.84 211.04 227.248 209.912L228.64 210.44C227.968 211.736 227.176 213.224 226.552 214.184ZM218.32 210.344L219.496 209.936C220.192 211.04 220.864 212.504 221.056 213.44L219.808 213.92C219.616 212.984 218.968 211.472 218.32 210.344ZM216.976 214.52H222.568V209.336H216.976V214.52ZM229.84 214.52V209.336H224.32V214.52H229.84ZM234.088 221.624V223.208H212.896V221.624H222.568V219.464H214.864V218H222.568V216.032H215.272V207.824H231.616V216.032H224.32V218H232.072V219.464H224.32V221.624H234.088ZM214.576 228.944L212.92 228.152C214 227.24 215.008 225.632 215.584 224.168L217.288 224.576C216.688 226.112 215.728 227.864 214.576 228.944ZM219.664 224.768L221.32 224.648C221.632 225.872 221.848 227.528 221.848 228.464L220.096 228.704C220.096 227.72 219.928 226.064 219.664 224.768ZM224.584 224.816L226.24 224.48C226.792 225.68 227.392 227.288 227.608 228.272L225.856 228.704C225.64 227.696 225.088 226.064 224.584 224.816ZM229.432 224.72L231.04 224.168C232.216 225.344 233.56 227.072 234.208 228.2L232.48 228.872C231.904 227.768 230.584 225.992 229.432 224.72ZM250.312 210.608H244.048C243.28 211.64 242.368 212.624 241.456 213.536H247.792C248.68 212.72 249.616 211.616 250.312 210.608ZM254.8 219.368V215.192H249.064V219.368H254.8ZM241.816 215.192V219.368H247.336V215.192H241.816ZM244.912 226.808H254.248C256.624 226.808 256.984 226.136 257.272 222.992C257.728 223.28 258.448 223.544 258.976 223.64C258.568 227.36 257.848 228.44 254.248 228.44H245.032C241.264 228.44 240.088 227.768 240.088 225.008V214.784C239.392 215.408 238.672 215.936 237.952 216.44C237.808 216.032 237.28 215.168 236.992 214.76C239.896 212.984 242.824 210.056 244.48 206.84L246.064 207.44C245.776 207.968 245.488 208.472 245.176 209H251.488L251.848 208.904L253.024 209.744C252.184 211.016 251.08 212.384 249.952 213.536H256.552V222.128H254.8V221.072H241.816V225.032C241.816 226.448 242.32 226.808 244.912 226.808ZM262.84 228.608L261.4 227.696C262.888 226.424 263.728 224.312 264.088 222.224L265.672 222.656C265.216 224.888 264.472 227.24 262.84 228.608ZM267.52 223.04L269.056 222.8C269.488 224.312 269.8 226.256 269.848 227.552L268.264 227.816C268.24 226.52 267.928 224.576 267.52 223.04ZM271.648 222.896L273.016 222.584C273.712 223.88 274.336 225.656 274.528 226.76L273.04 227.192C272.872 226.088 272.272 224.264 271.648 222.896ZM266.224 217.28V219.632H271.816V217.28H266.224ZM271.816 209.672H266.224V212.024H271.816V209.672ZM271.816 215.816V213.464H266.224V215.816H271.816ZM273.568 219.632H282.76C282.76 219.632 282.736 220.16 282.688 220.4C282.376 225.416 282.016 227.384 281.344 228.128C280.936 228.584 280.48 228.752 279.808 228.8C279.184 228.848 277.984 228.848 276.76 228.752C276.712 228.296 276.544 227.576 276.28 227.12C277.456 227.264 278.584 227.264 278.992 227.264C279.424 227.264 279.664 227.216 279.856 227.024C280.288 226.544 280.6 225.032 280.864 221.216H264.496V208.088H281.248V209.672H273.568V212.024H280.432V213.464H273.568V215.816H280.432V217.28H273.568V219.632ZM278.896 225.224L277.528 225.848C277.168 224.96 276.304 223.544 275.488 222.536L276.784 222.008C277.648 222.992 278.536 224.36 278.896 225.224ZM288.352 209.864V212.096H286.696V208.448H296.296C296.104 208.016 295.864 207.584 295.648 207.224L297.4 206.744C297.712 207.248 298.072 207.896 298.312 208.448H307.24V212.096H305.512V209.864H288.352ZM301.888 220.352V219.248H291.928V220.352H301.888ZM301.888 222.488V221.36H291.928V222.488H301.888ZM301.888 224.648V223.496H291.928V224.648H301.888ZM300.448 217.016H293.776C293.392 217.424 292.96 217.832 292.528 218.216H301.672C301.216 217.832 300.808 217.448 300.448 217.016ZM294.208 214.616V215.696H299.68V214.616H294.208ZM294.208 212.504V213.56H299.68V212.504H294.208ZM303.616 219.608V225.68H300.448C302.848 226.304 305.368 227.096 306.952 227.648L305.488 228.704C303.904 228.08 301.24 227.216 298.552 226.424L299.416 225.68H294.088L295.144 226.328C293.224 227.408 290.056 228.344 287.488 228.8C287.272 228.488 286.792 227.936 286.456 227.6C288.736 227.24 291.544 226.448 293.176 225.68H290.272V219.8C289.168 220.472 288.016 221.024 286.936 221.408C286.696 221.024 286.192 220.424 285.856 220.112C287.944 219.512 290.248 218.36 291.832 217.016H286.432V215.696H292.528V214.616H289.216V213.56H292.528V212.504H288.856V211.376H292.528V210.32H294.208V211.376H299.68V210.32H301.36V211.376H304.96V212.504H301.36V213.56H304.696V214.616H301.36V215.696H307.504V217.016H302.368C303.88 218.24 306.016 219.296 308.032 219.824C307.672 220.112 307.168 220.76 306.928 221.144C305.824 220.808 304.672 220.256 303.616 219.608ZM315.496 215.216V219.056H327.328V215.216H315.496ZM325.984 226.904H329.44C330.424 226.904 330.568 226.448 330.664 223.376C331.072 223.712 331.84 224 332.344 224.12C332.128 227.72 331.6 228.608 329.584 228.608H325.816C323.584 228.608 323.008 228.032 323.008 226.088V220.688H319.432C318.856 224.816 317.344 227.504 311.56 228.896C311.392 228.392 310.888 227.648 310.528 227.264C315.784 226.184 317.032 224.048 317.512 220.688H313.792V213.608H320.44V210.968H311.128V209.312H320.44V206.912H322.216V209.312H331.744V210.968H322.216V213.608H329.128V220.688H324.784V226.088C324.784 226.784 324.976 226.904 325.984 226.904ZM341.584 209.624L340.552 211.064C339.568 210.368 337.648 209.24 336.208 208.496L337.192 207.224C338.608 207.896 340.552 208.952 341.584 209.624ZM340.072 216.032L339.088 217.496C338.176 216.872 336.28 215.792 334.912 215.048L335.872 213.752C337.216 214.4 339.112 215.408 340.072 216.032ZM337.24 228.464L335.728 227.312C336.952 225.464 338.728 222.344 340.048 219.632L341.392 220.736C340.192 223.256 338.608 226.256 337.24 228.464ZM347.176 227H353.416C354.856 227 355.12 226.352 355.312 223.544C355.744 223.832 356.44 224.12 356.944 224.216C356.632 227.552 356.08 228.608 353.464 228.608H347.152C344.32 228.608 343.48 227.936 343.48 225.296V217.424L341.104 218.336L340.432 216.776L343.48 215.576V209.336H345.16V214.928L348.688 213.536V206.96H350.32V212.912L354.664 211.232V211.208H354.688L356.008 211.64L355.936 211.976C355.864 215.432 355.624 219.992 355.24 222.824L353.752 222.416C354.016 220.136 354.16 216.392 354.208 213.224L350.32 214.736V223.52H348.688V215.384L345.16 216.776V225.296C345.16 226.688 345.496 227 347.176 227ZM381.112 210.968H363.064V216.2C363.064 219.92 362.752 225.32 360.688 228.92C360.376 228.608 359.584 228.104 359.2 227.912C361.144 224.504 361.312 219.656 361.312 216.2V209.336H370.672C370.408 208.688 370.024 207.944 369.616 207.392L371.344 206.888C371.896 207.608 372.424 208.568 372.712 209.336H381.112V210.968ZM368.992 228.008V226.544H375.184V228.008H368.992ZM367.504 218.384H372.976C372.784 217.112 372.64 215.816 372.568 214.424C370.864 214.568 369.136 214.688 367.504 214.736V218.384ZM380.536 219.992H375.016C375.88 224.096 377.464 226.832 378.952 226.832C379.48 226.832 379.696 225.776 379.792 223.424C380.2 223.784 380.776 224.096 381.232 224.24C380.968 227.6 380.368 228.512 378.832 228.512C376.288 228.512 374.272 225.008 373.24 219.992H367.504V224.168L372.088 223.088C372.064 223.568 372.088 224.24 372.112 224.6C366.952 225.92 366.208 226.184 365.752 226.472C365.632 226.04 365.296 225.32 365.08 224.936C365.392 224.816 365.8 224.48 365.8 223.592V213.392C370.144 213.224 375.28 212.792 378.136 212.168L379.48 213.488C377.992 213.8 376.216 214.064 374.32 214.256C374.368 215.72 374.512 217.088 374.728 218.384H380.536V219.992ZM392.944 214.664C394.648 216.056 396.832 218.216 398.32 219.992L396.688 221.36C395.128 219.464 393.088 217.424 391.384 216.032L392.944 214.664ZM425.392 214.592H428.416C428.824 214.592 429.52 214.544 429.904 214.472C429.928 214.88 429.976 215.576 430.024 215.984C429.736 216.08 429.088 216.104 428.464 216.104H425.416C423.664 216.104 423.208 215.504 423.208 213.776V210.464H424.84V213.8C424.84 214.376 424.912 214.592 425.392 214.592ZM416.92 209.792V212.552H415.264V208.232H429.328V212.456H427.624V209.792H416.92ZM419.416 210.464H421.048C420.736 213.968 419.632 215.768 415.192 216.752C415.048 216.344 414.616 215.672 414.28 215.384C418.288 214.64 419.176 213.296 419.416 210.464ZM414.52 209.912L413.44 211.28C412.6 210.464 410.872 209.288 409.528 208.544L410.584 207.32C411.928 207.992 413.656 209.096 414.52 209.912ZM413.2 216.2L412.168 217.616C411.304 216.824 409.624 215.672 408.28 214.976L409.288 213.752C410.608 214.376 412.36 215.432 413.2 216.2ZM412.744 219.536L414.088 220.664C413.008 223.16 411.616 226.088 410.392 228.296L408.904 227.168C409.984 225.344 411.568 222.224 412.744 219.536ZM429.712 220.304H424.24C425.704 222.584 428.104 224.672 430.408 225.752C430.024 226.088 429.472 226.712 429.208 227.168C426.928 225.896 424.6 223.64 423.04 221.168V228.824H421.288V221.264C419.728 223.856 417.4 226.04 414.904 227.24C414.64 226.808 414.088 226.16 413.68 225.824C416.224 224.768 418.6 222.68 420.04 220.304H414.856V218.672H421.288V216.08H423.04V218.672H429.712V220.304ZM446.872 214.184L445.72 213.704C446.344 212.672 447.16 211.04 447.568 209.912L448.96 210.44C448.288 211.736 447.496 213.224 446.872 214.184ZM438.64 210.344L439.816 209.936C440.512 211.04 441.184 212.504 441.376 213.44L440.128 213.92C439.936 212.984 439.288 211.472 438.64 210.344ZM437.296 214.52H442.888V209.336H437.296V214.52ZM450.16 214.52V209.336H444.64V214.52H450.16ZM454.408 221.624V223.208H433.216V221.624H442.888V219.464H435.184V218H442.888V216.032H435.592V207.824H451.936V216.032H444.64V218H452.392V219.464H444.64V221.624H454.408ZM434.896 228.944L433.24 228.152C434.32 227.24 435.328 225.632 435.904 224.168L437.608 224.576C437.008 226.112 436.048 227.864 434.896 228.944ZM439.984 224.768L441.64 224.648C441.952 225.872 442.168 227.528 442.168 228.464L440.416 228.704C440.416 227.72 440.248 226.064 439.984 224.768ZM444.904 224.816L446.56 224.48C447.112 225.68 447.712 227.288 447.928 228.272L446.176 228.704C445.96 227.696 445.408 226.064 444.904 224.816ZM449.752 224.72L451.36 224.168C452.536 225.344 453.88 227.072 454.528 228.2L452.8 228.872C452.224 227.768 450.904 225.992 449.752 224.72ZM470.632 210.608H464.368C463.6 211.64 462.688 212.624 461.776 213.536H468.112C469 212.72 469.936 211.616 470.632 210.608ZM475.12 219.368V215.192H469.384V219.368H475.12ZM462.136 215.192V219.368H467.656V215.192H462.136ZM465.232 226.808H474.568C476.944 226.808 477.304 226.136 477.592 222.992C478.048 223.28 478.768 223.544 479.296 223.64C478.888 227.36 478.168 228.44 474.568 228.44H465.352C461.584 228.44 460.408 227.768 460.408 225.008V214.784C459.712 215.408 458.992 215.936 458.272 216.44C458.128 216.032 457.6 215.168 457.312 214.76C460.216 212.984 463.144 210.056 464.8 206.84L466.384 207.44C466.096 207.968 465.808 208.472 465.496 209H471.808L472.168 208.904L473.344 209.744C472.504 211.016 471.4 212.384 470.272 213.536H476.872V222.128H475.12V221.072H462.136V225.032C462.136 226.448 462.64 226.808 465.232 226.808ZM503.296 215.6H494.248C495.928 220.88 499.048 225.224 503.68 227.12C503.248 227.528 502.648 228.272 502.336 228.8C497.728 226.616 494.68 222.368 492.784 216.92C491.632 221.528 489.04 226.136 483.208 228.8C482.944 228.32 482.368 227.696 481.864 227.336C487.816 224.744 490.216 220.136 491.2 215.6H482.344V213.776H491.488C491.848 211.256 491.824 208.856 491.848 206.96H493.768C493.744 208.88 493.72 211.256 493.384 213.776H503.296V215.6ZM513.712 222.176L514.024 223.88C511.456 224.744 508.72 225.68 506.584 226.376L506.176 224.576C507.064 224.312 508.168 223.976 509.392 223.568V217.112H506.656V215.432H509.392V210.224H506.416V208.544H513.856V210.224H511.096V215.432H513.52V217.112H511.096V223.04L513.712 222.176ZM516.664 214.064V217.136H520.312V214.064H516.664ZM516.664 209.576V212.6H520.312V209.576H516.664ZM525.52 212.6V209.576H521.848V212.6H525.52ZM525.52 217.136V214.064H521.848V217.136H525.52ZM521.992 226.424H528.352V228.056H512.896V226.424H520.192V223.136H514.744V221.504H520.192V218.696H515.032V208.016H527.224V218.696H521.992V221.504H527.584V223.136H521.992V226.424ZM548.8 218.456H537.4V225.44H548.8V218.456ZM552.112 210.512H540.232C539.488 212.624 538.528 214.76 537.352 216.752H550.648V228.824H548.8V227.168H537.4V228.848H535.624V219.344C534.472 220.88 533.128 222.248 531.64 223.4C531.376 222.992 530.776 222.368 530.392 222.032C534.136 219.272 536.8 214.76 538.216 210.512H531.376V208.76H552.112V210.512ZM569.656 212.216V210.176H566.848V208.592H569.656V206.936H571.408V208.592H576.64V210.176H571.408V212.216H569.656ZM560.92 212.216V210.2H555.736V208.592H560.92V206.936H562.648V208.592H565.6V210.2H562.648V212.216H560.92ZM556.864 213.128L557.92 211.976C559.168 212.72 560.992 213.752 561.976 214.328L560.92 215.672C560.008 215.072 558.16 213.944 556.864 213.128ZM560.392 218.864L559.336 220.232C558.424 219.584 556.624 218.504 555.28 217.76L556.288 216.56C557.632 217.232 559.456 218.24 560.392 218.864ZM557.032 228.752L555.736 227.384C557.056 225.944 559 223.544 560.488 221.384L561.592 222.656C560.248 224.648 558.52 227 557.032 228.752ZM573.136 223.136H565.6V226.4H573.136V223.136ZM563.896 228.848V221.72H574.888V228.848H573.136V227.816H565.6V228.848H563.896ZM566.392 214.616L566.248 214.784C567.112 215.696 568.288 216.536 569.608 217.328C570.904 216.512 572.056 215.624 572.92 214.616H566.392ZM574.384 213.128L575.512 213.848C574.48 215.504 572.944 216.944 571.168 218.168C573.136 219.128 575.368 219.896 577.504 220.352C577.12 220.712 576.664 221.384 576.4 221.84C574.096 221.264 571.768 220.304 569.632 219.104C567.328 220.4 564.736 221.36 562.312 221.984C562.12 221.552 561.736 220.88 561.424 220.544C563.608 220.064 566.008 219.248 568.12 218.168C567.064 217.472 566.104 216.656 565.288 215.84C564.472 216.656 563.56 217.472 562.552 218.216C562.24 217.856 561.688 217.376 561.28 217.136C563.776 215.456 565.672 213.224 566.704 211.448L568.456 211.784C568.144 212.264 567.832 212.72 567.472 213.224H574.096L574.384 213.128ZM598 210.32V209.024H588.712V210.32H598ZM598 212.84V211.496H588.712V212.84H598ZM599.704 207.8V214.088H587.056V207.8H599.704ZM586.168 209.48L585.16 210.92C584.272 210.104 582.472 209.072 580.984 208.424L581.944 207.176C583.408 207.728 585.256 208.712 586.168 209.48ZM584.968 215.72L583.984 217.208C583.096 216.416 581.272 215.432 579.76 214.832L580.696 213.512C582.184 214.04 584.032 214.952 584.968 215.72ZM583.36 219.776L584.824 220.712C584.032 223.232 582.952 226.184 582.016 228.368L580.384 227.432C581.272 225.584 582.496 222.464 583.36 219.776ZM596.56 222.08L597.952 222.872C597.256 223.616 596.44 224.384 595.744 224.96C597.544 225.68 599.32 226.472 600.52 227.12L599.584 228.296C598.24 227.504 596.176 226.568 594.04 225.728V227.288C594.04 228.104 593.896 228.44 593.272 228.68C592.696 228.92 591.784 228.944 590.368 228.944C590.272 228.512 589.984 227.96 589.768 227.6C590.872 227.624 591.784 227.624 592.072 227.6C592.36 227.576 592.432 227.504 592.432 227.24V225.632C590.32 226.568 588.112 227.48 586.384 228.2L585.616 226.808C587.344 226.208 589.912 225.2 592.432 224.24V220.808H594.04V224.36L594.376 224.48C595.096 223.76 596.056 222.776 596.56 222.08ZM591.568 223.856L590.368 224.696C590.032 224.144 589.288 223.352 588.616 222.8L589.768 222.056C590.464 222.56 591.208 223.304 591.568 223.856ZM591.304 216.968V218.696H595.384V216.968H591.304ZM601.504 220.088H597.352C598.6 221.312 600.352 222.464 601.936 223.088C601.576 223.328 601.144 223.904 600.904 224.264C599.056 223.4 596.944 221.744 595.648 220.088H591.064C589.648 221.816 587.32 223.472 585.328 224.312C585.088 223.952 584.656 223.424 584.32 223.16C586.024 222.536 587.944 221.36 589.288 220.088H585.28V218.696H589.648V216.968H586.168V215.6H589.648V214.112H591.304V215.6H595.384V214.112H597.064V215.6H600.616V216.968H597.064V218.696H601.504V220.088ZM610.864 209.624L609.832 211.064C608.848 210.368 606.928 209.24 605.488 208.496L606.472 207.224C607.888 207.896 609.832 208.952 610.864 209.624ZM609.352 216.032L608.368 217.496C607.456 216.872 605.56 215.792 604.192 215.048L605.152 213.752C606.496 214.4 608.392 215.408 609.352 216.032ZM606.52 228.464L605.008 227.312C606.232 225.464 608.008 222.344 609.328 219.632L610.672 220.736C609.472 223.256 607.888 226.256 606.52 228.464ZM616.456 227H622.696C624.136 227 624.4 226.352 624.592 223.544C625.024 223.832 625.72 224.12 626.224 224.216C625.912 227.552 625.36 228.608 622.744 228.608H616.432C613.6 228.608 612.76 227.936 612.76 225.296V217.424L610.384 218.336L609.712 216.776L612.76 215.576V209.336H614.44V214.928L617.968 213.536V206.96H619.6V212.912L623.944 211.232V211.208H623.968L625.288 211.64L625.216 211.976C625.144 215.432 624.904 219.992 624.52 222.824L623.032 222.416C623.296 220.136 623.44 216.392 623.488 213.224L619.6 214.736V223.52H617.968V215.384L614.44 216.776V225.296C614.44 226.688 614.776 227 616.456 227ZM643.84 216.248V214.304H639.112V212.864H641.92C641.8 212.168 641.464 211.232 641.128 210.488L642.424 210.152H639.712V208.712H644.008C643.864 208.208 643.648 207.68 643.48 207.224L645.064 206.864C645.376 207.416 645.664 208.112 645.808 208.712H649.84V210.152H642.544C642.928 210.968 643.312 212.024 643.432 212.72L642.928 212.864H645.904C646.216 212.048 646.624 210.944 646.84 210.2L648.448 210.464C648.088 211.304 647.728 212.168 647.392 212.864H650.44V214.304H645.52V216.248H649.912V217.688H645.52V220.424H643.84V217.688H639.52V216.248H643.84ZM636.88 209.168H631.696V211.616H636.88V209.168ZM632.68 216.008V218.528H637.192V216.008H632.68ZM631.216 219.896V216.584C630.904 217.904 630.424 219.224 629.632 220.304C629.416 219.944 628.792 219.248 628.456 219.056C629.944 216.968 630.112 214.088 630.112 211.928V207.776H638.512V212.984H631.672C631.648 213.512 631.624 214.064 631.552 214.64H638.752V219.896H631.216ZM640.528 226.592H650.464V228.176H628.84V226.592H638.752V223.832H631.312V222.272H638.752V220.376H640.528V222.272H648.208V223.832H640.528V226.592Z" fill="#141915"/>
</g>
<g clip-path="url(#clip5_138_9)">
<rect width="775" height="62" transform="translate(0 248)" fill="white" fill-opacity="0.01"/>
<mask id="path-27-inside-9_138_9" fill="white">
<path d="M0 248H175V310H0V248Z"/>
</mask>
<path d="M0 248H175V310H0V248Z" fill="white" fill-opacity="0.01"/>
<path d="M0 248V247H-1V248H0ZM0 249H175V247H0V249ZM1 310V248H-1V310H1Z" fill="#343D4C" mask="url(#path-27-inside-9_138_9)"/>
<path d="M22.608 282.568L21.12 283.168C21.048 282.784 20.952 282.376 20.808 281.896C15.096 282.76 14.328 282.928 13.824 283.216C13.752 282.856 13.464 281.992 13.272 281.512C13.776 281.416 14.352 280.84 15.12 279.976C15.528 279.544 16.344 278.536 17.28 277.216C14.568 277.528 14.016 277.648 13.68 277.816C13.584 277.456 13.32 276.64 13.128 276.208C13.56 276.112 13.992 275.608 14.52 274.888C15.024 274.216 16.824 271.48 17.88 268.84L19.536 269.56C18.408 271.768 17.04 274.048 15.624 275.872L18.408 275.608C19.032 274.624 19.68 273.592 20.208 272.56L21.768 273.496C20.136 276.208 18.168 278.896 16.176 281.056L20.328 280.48C20.04 279.736 19.752 278.944 19.464 278.296L20.832 277.816C21.552 279.352 22.296 281.368 22.608 282.568ZM14.424 284.248L15.96 284.536C15.672 286.576 15.12 288.832 14.568 290.32C14.232 290.128 13.488 289.888 13.08 289.768C13.68 288.28 14.136 286.168 14.424 284.248ZM17.112 284.416L18.552 284.104C18.888 285.784 19.176 287.944 19.272 289.384L17.712 289.72C17.664 288.28 17.376 286.072 17.112 284.416ZM19.848 283.936L21.216 283.504C21.792 284.968 22.416 286.888 22.68 288.136L21.216 288.616C20.976 287.344 20.376 285.4 19.848 283.936ZM27.144 288.832H31.776C32.952 288.832 33.144 288.256 33.288 285.256C33.72 285.568 34.464 285.88 34.992 286C34.752 289.504 34.2 290.488 31.92 290.488H26.976C24.528 290.488 23.76 289.936 23.76 287.704V277.936H31.704V271.96H23.208V270.184H33.504V280.888H31.704V279.688H25.584V287.728C25.584 288.64 25.824 288.832 27.144 288.832ZM39.48 289.864L37.848 289.12C38.856 287.536 39.744 285.064 40.248 283.216L41.808 283.816C41.256 285.64 40.416 288.232 39.48 289.864ZM54.384 277.456L55.56 278.2C54.552 280.024 52.776 282.16 51.36 283.504C51 283.24 50.4 282.856 49.992 282.664C51.024 281.728 52.176 280.336 53.016 279.064H40.728V277.528H54.096L54.384 277.456ZM45.792 282.136L47.256 281.368C48.528 282.784 50.232 284.752 51.072 285.928L49.536 286.84C48.72 285.64 47.088 283.6 45.792 282.136ZM46.632 288.76H51.984C53.256 288.76 53.448 288.376 53.592 285.976C54 286.24 54.72 286.504 55.248 286.624C54.984 289.648 54.432 290.392 52.104 290.392H46.56C43.776 290.392 43.056 289.864 43.056 287.92V283.264H44.832V287.92C44.832 288.616 45.096 288.76 46.632 288.76ZM54.24 283.048L55.872 282.544C56.928 284.584 58.272 287.296 58.968 288.904L57.216 289.576C56.616 287.968 55.272 285.136 54.24 283.048ZM44.4 274.288H52.8C51.144 273.28 49.608 272.128 48.336 270.952C47.256 272.2 45.936 273.328 44.4 274.288ZM47.976 268.552L49.656 269.152C49.536 269.344 49.416 269.536 49.296 269.704C51.72 272.056 55.92 274.36 59.472 275.44C59.064 275.8 58.512 276.496 58.248 276.976C56.544 276.352 54.648 275.416 52.872 274.336V275.776H43.992V274.552C42.36 275.536 40.536 276.376 38.568 277.096C38.328 276.688 37.8 276.016 37.44 275.68C42.144 274.12 46.152 271.672 47.976 268.552ZM67.968 286.216V279.136H65.328V286.216H67.968ZM62.256 271.84V270.184H70.08V271.84H66.864C66.504 273.832 66 275.776 65.376 277.552H69.504V287.824H65.328V289.744H63.816V281.104C63.432 281.8 63.024 282.448 62.568 283.024C62.448 282.616 62.04 281.608 61.752 281.128C63.432 278.872 64.536 275.488 65.184 271.84H62.256ZM72.96 279.04H75.312C75.696 278.2 75.936 277.36 76.08 276.568H72.96V279.04ZM72.96 272.752V275.2H76.2C76.224 274.96 76.224 274.744 76.224 274.552V272.752H72.96ZM81.144 275.2V272.752H77.856V274.576C77.856 274.768 77.856 274.984 77.856 275.2H81.144ZM81.144 279.04V276.568H77.736C77.616 277.36 77.424 278.2 77.088 279.04H81.144ZM83.76 284.416V286H79.368V290.848H77.664V286H70.104V284.416H72.144C71.88 284.08 71.28 283.624 70.896 283.36C72.48 282.496 73.608 281.512 74.4 280.504H71.328V271.288H75.072C75.336 270.52 75.624 269.608 75.744 268.936L77.76 269.176C77.472 269.872 77.136 270.64 76.848 271.288H82.848V280.504H76.392C75.552 281.92 74.28 283.24 72.264 284.416H77.664V280.72H79.368V284.416H83.76ZM106.128 273.76V272.056H104.184V273.76H106.128ZM106.128 276.736V274.96H104.184V276.736H106.128ZM98.136 274.96V276.736H99.984V274.96H98.136ZM98.136 272.056V273.76H99.984V272.056H98.136ZM102.984 274.96H101.184V276.736H102.984V274.96ZM101.184 273.76H102.984V272.056H101.184V273.76ZM107.568 270.784V278.008H96.744V270.784H99.72V268.96H101.184V270.784H102.912V268.96H104.376V270.784H107.568ZM108.168 279.256V280.6H96.216V279.256H108.168ZM98.976 282.976V284.992H105.336V282.976H98.976ZM106.992 286.192H97.392V281.752H106.992V286.192ZM94.44 279.28V277.696H88.152V279.28H94.44ZM89.232 271.144V276.4H90.72V272.68H93.336V271.144H89.232ZM91.776 276.4H93.336V273.808H91.776V276.4ZM94.824 269.776V276.4H95.856V279.832H94.752V289.024C94.752 289.792 94.608 290.176 94.08 290.44C93.552 290.656 92.736 290.68 91.392 290.68C91.32 290.296 91.08 289.72 90.888 289.312C91.824 289.336 92.664 289.336 92.904 289.336C93.168 289.336 93.24 289.24 93.24 289V285.856C92.112 286.552 91.032 287.224 90.024 287.8L89.352 286.528C90.384 286.096 91.776 285.376 93.24 284.608V280.552H89.472V283.768C89.472 285.952 89.232 288.88 87.816 290.92C87.552 290.632 86.928 290.128 86.568 289.96C87.816 288.136 87.96 285.664 87.96 283.768V279.832H86.784V276.4H87.768V269.776H94.824ZM93.048 283.408L92.16 284.392C91.584 283.816 90.504 282.88 89.616 282.28L90.432 281.464C91.392 282.064 92.496 282.856 93.048 283.408ZM104.76 288.976H108.384V290.368H95.976V288.976H99.408C99.192 288.256 98.88 287.392 98.568 286.72L99.96 286.312C100.32 287.128 100.752 288.208 100.992 288.976H103.296C103.656 288.136 104.088 287.008 104.328 286.24L105.96 286.72C105.552 287.464 105.12 288.304 104.76 288.976Z" fill="#141915"/>
<mask id="path-30-inside-10_138_9" fill="white">
<path d="M175 248H775V310H175V248Z"/>
</mask>
<path d="M175 248H775V310H175V248Z" fill="white" fill-opacity="0.01"/>
<path d="M175 248V247H174V248H175ZM175 249H775V247H175V249ZM176 310V248H174V310H176Z" fill="#343D4C" mask="url(#path-30-inside-10_138_9)"/>
<path d="M196.912 273.856L196.072 275.224C195.184 274.096 193.648 272.752 192.112 271.648C191.344 272.8 190.504 273.904 189.616 274.816H195.376V276.328H193V278.92H196.168V280.456H193V287.608C194.104 287.392 195.304 287.152 196.432 286.912L196.552 288.4C193.744 289.048 190.816 289.648 188.56 290.128L188.176 288.496C189.112 288.328 190.24 288.112 191.488 287.896V280.456H188.296V278.92H191.488V276.328H189.4V275.032C189.064 275.392 188.728 275.68 188.392 275.968C188.272 275.584 187.864 274.696 187.624 274.312C189.304 273.04 191.008 271 192.04 268.84L193.36 269.392C193.216 269.728 193.048 270.04 192.856 270.376C194.44 271.432 196.024 272.752 196.912 273.856ZM194.8 286.168L193.672 285.856C193.984 284.68 194.392 282.784 194.56 281.488L195.904 281.848C195.544 283.312 195.16 285.064 194.8 286.168ZM188.656 282.04L189.832 281.776C190.312 283.216 190.696 285.064 190.768 286.264L189.52 286.6C189.472 285.352 189.088 283.48 188.656 282.04ZM200.08 286.384V279.472H201.16V284.992H202.672V277.912H199.504V276.52H203.92C204.328 275.224 204.784 273.352 205.024 272.032L206.368 272.416C205.984 273.736 205.552 275.344 205.144 276.52H206.992V277.912H203.776V284.992H205.336V279.472H206.392V286.384H200.08ZM200.056 272.44L201.16 272.128C201.76 273.304 202.264 274.816 202.408 275.752L201.256 276.16C201.112 275.2 200.608 273.616 200.056 272.44ZM209.32 269.944V288.76C209.32 289.768 209.08 290.272 208.456 290.536C207.784 290.824 206.68 290.848 204.856 290.848C204.784 290.416 204.568 289.696 204.328 289.24C205.696 289.288 206.92 289.288 207.28 289.264C207.664 289.24 207.784 289.144 207.784 288.736V271.528H198.616V290.848H197.08V269.944H209.32ZM220.648 281.608L219.664 282.928C219.328 282.16 218.488 280.696 217.792 279.52V290.8H216.16V279.592C215.368 282.208 214.336 284.728 213.232 286.288C213.04 285.832 212.608 285.16 212.32 284.752C213.808 282.76 215.272 279.016 215.968 275.752H212.8V274.096H216.16V268.912H217.792V274.096H220.528V275.752H217.792V277.408C218.464 278.296 220.24 280.96 220.648 281.608ZM228.112 285.52H231.496V283.768H228.112V285.52ZM223.312 283.768V285.52H226.48V283.768H223.312ZM226.48 280.84H223.312V282.496H226.48V280.84ZM231.496 280.84H228.112V282.496H231.496V280.84ZM225.424 275.104V276.712H229.288V275.104H225.424ZM225.424 272.224V273.784H229.288V272.224H225.424ZM234.688 285.52V286.912H233.152V288.952C233.152 289.792 232.984 290.248 232.336 290.512C231.712 290.752 230.68 290.752 229.096 290.752C229.024 290.344 228.784 289.72 228.592 289.312C229.744 289.36 230.776 289.336 231.112 289.336C231.4 289.312 231.496 289.216 231.496 288.928V286.912H223.312V290.752H221.68V286.912H220.048V285.52H221.68V279.496H226.48V278.08H220.48V276.712H223.792V275.104H221.512V273.784H223.792V272.224H221.032V270.88H223.792V268.912H225.424V270.88H229.288V268.912H230.968V270.88H233.944V272.224H230.968V273.784H233.584V275.104H230.968V276.712H234.424V278.08H228.112V279.496H233.152V285.52H234.688ZM246.064 276.664C247.768 278.056 249.952 280.216 251.44 281.992L249.808 283.36C248.248 281.464 246.208 279.424 244.504 278.032L246.064 276.664ZM279.688 273.592V271.408H270.64V273.592H279.688ZM279.688 277.168V274.96H270.64V277.168H279.688ZM281.536 269.992V278.608H268.864V269.992H281.536ZM266.824 278.176L265.864 279.64C264.88 278.968 262.96 277.816 261.52 277.048L262.456 275.752C263.848 276.448 265.816 277.504 266.824 278.176ZM263.752 290.512L262.336 289.312C263.584 287.488 265.408 284.344 266.776 281.632L268.024 282.808C266.8 285.328 265.144 288.304 263.752 290.512ZM262.792 270.496L263.728 269.224C265.168 269.92 267.16 271.024 268.216 271.696L267.208 273.16C266.224 272.44 264.256 271.288 262.792 270.496ZM270.784 288.568L275.008 287.608C275.056 288.064 275.2 288.712 275.272 289.072C270.112 290.344 269.344 290.632 268.864 290.92C268.792 290.44 268.528 289.648 268.288 289.216C268.648 289.12 269.032 288.928 269.032 288.136V279.352H270.784V282.4H275.104V283.96H270.784V288.568ZM278.536 289.168H281.152C281.8 289.168 281.944 288.76 282.016 286.504C282.376 286.768 283.096 287.056 283.576 287.176C283.384 289.936 282.904 290.704 281.32 290.704H278.32C276.4 290.704 275.92 290.176 275.92 288.352V279.304H277.648V282.4H282.832V283.936H277.648V288.328C277.648 289.048 277.768 289.168 278.536 289.168ZM296.296 276.352H293.248C291.544 276.352 291.112 275.68 291.112 273.952V268.936H292.72V271.168H297.712V272.536H292.72V273.976C292.72 274.672 292.816 274.912 293.32 274.912H296.248C296.68 274.912 297.376 274.864 297.76 274.792C297.808 275.224 297.856 275.848 297.904 276.208C297.592 276.304 296.92 276.352 296.296 276.352ZM290.272 275.344L288.784 276.16C288.256 274.768 287.104 272.392 286.168 270.616L287.56 269.968C288.496 271.696 289.696 273.976 290.272 275.344ZM288.856 281.128L290.2 281.92C289.384 284.488 288.304 287.44 287.416 289.624L285.88 288.832C286.792 286.984 287.992 283.84 288.856 281.128ZM298.432 284.392H295.264C295.24 284.632 295.192 284.848 295.144 285.064C296.176 285.928 297.4 287.056 298 287.824L296.92 288.904C296.416 288.28 295.552 287.344 294.664 286.552C294.088 288.088 293.008 289.624 291.088 290.896C290.848 290.56 290.344 290.056 289.96 289.792C292.408 288.256 293.344 286.216 293.656 284.392H290.608V282.928H293.824C293.848 282.616 293.848 282.328 293.848 282.04V280H292.624C292.288 280.96 291.88 281.848 291.496 282.544C291.208 282.352 290.584 281.968 290.224 281.776C291.064 280.432 291.688 278.416 292.048 276.496L293.488 276.856C293.392 277.384 293.248 277.96 293.08 278.512H298.168V280H295.432V282.064C295.432 282.352 295.432 282.616 295.408 282.928H298.432V284.392ZM306.424 269.536L307.552 270.304C306.64 271.744 305.296 273.328 304.024 274.504C304.648 274.936 305.224 275.368 305.632 275.752L304.576 276.928C303.52 275.968 301.408 274.504 299.704 273.544L300.712 272.488C301.36 272.824 302.056 273.232 302.752 273.688C303.52 272.944 304.312 272.008 304.936 271.144H298.888V269.632H306.088L306.424 269.536ZM305.8 289.024H308.176C307.96 289.408 307.72 290.128 307.672 290.56H305.704C303.352 290.56 301.408 289.864 300.136 286.648C299.776 288.352 299.128 289.768 298.144 290.824C297.928 290.488 297.472 289.984 297.112 289.768C298.936 287.848 299.296 284.416 299.416 280.432H300.784C300.76 281.752 300.688 283 300.544 284.176C300.976 285.952 301.6 287.08 302.32 287.8V278.488H298.552V276.928H306.592L306.856 276.88L307.864 277.12C307.576 278.44 307.216 279.976 306.88 280.96L305.656 280.624C305.776 280.072 305.968 279.28 306.136 278.488H303.904V282.544H307.528V284.032H303.904V288.76C304.504 288.952 305.152 289.024 305.8 289.024ZM322.288 288.04H332.104V289.792H310.744V288.04H320.416V278.368H312.256V276.616H320.416V269.008H322.288V276.616H330.568V278.368H322.288V288.04Z" fill="#141915"/>
</g>
</g>
<rect x="0.5" y="0.5" width="774" height="309" rx="3.5" stroke="#343D4C"/>
<defs>
<clipPath id="clip0_138_9">
<rect width="775" height="310" rx="4" fill="white"/>
</clipPath>
<clipPath id="clip1_138_9">
<rect width="775" height="62" fill="white"/>
</clipPath>
<clipPath id="clip2_138_9">
<rect width="775" height="62" fill="white" transform="translate(0 62)"/>
</clipPath>
<clipPath id="clip3_138_9">
<rect width="775" height="62" fill="white" transform="translate(0 124)"/>
</clipPath>
<clipPath id="clip4_138_9">
<rect width="775" height="62" fill="white" transform="translate(0 186)"/>
</clipPath>
<clipPath id="clip5_138_9">
<rect width="775" height="62" fill="white" transform="translate(0 248)"/>
</clipPath>
</defs>
</svg>
